<svg width="28" height="28" viewBox="0 0 28 28" fill="none" xmlns="http://www.w3.org/2000/svg">
<circle cx="14" cy="14" r="10.75" stroke="#DDDDDD" stroke-width="1.5"/>
<path d="M15.25 9.25C15.25 9.94036 14.6904 10.5 14 10.5C13.3096 10.5 12.75 9.94036 12.75 9.25C12.75 8.55964 13.3096 8 14 8C14.6904 8 15.25 8.55964 15.25 9.25Z" fill="#DDDDDD"/>
<path d="M13 12.5001C13 12.224 13.2239 12.0001 13.5 12.0001H14.5C14.7761 12.0001 15 12.224 15 12.5001V19.5C15 19.7762 14.7761 20 14.5 20H13.5C13.2239 20 13 19.7762 13 19.5V12.5001Z" fill="#DDDDDD"/>
</svg>
