<svg width="86" height="30" viewBox="0 0 86 30" fill="none" xmlns="http://www.w3.org/2000/svg">
<path d="M83.4414 22.7822C83.4414 22.5336 83.2967 22.3112 83.0732 22.2197C83.0732 22.2197 80.6929 21.5263 79.7329 21.3039C79.4568 21.2385 79.1806 21.3562 79.036 21.6048C78.5231 22.5075 77.9708 23.3578 76.8135 23.9465C74.9987 24.8623 72.8157 24.8361 70.9878 23.855C69.2782 22.9392 68.1868 21.3562 67.9895 19.5116C67.6081 16.0055 69.8963 13.7423 72.3423 13.0489C74.5779 12.4209 77.4316 13.0489 78.7729 15.8485C78.8913 16.0971 79.2069 16.2279 79.4962 16.1494L82.705 15.2467C82.8628 15.1944 83.0074 15.0897 83.0863 14.9458C83.1652 14.7889 83.1784 14.6188 83.1258 14.4487C82.008 11.0996 78.9308 8.88869 74.8672 8.54855C71.1851 8.24765 66.464 9.6998 64.3205 13.6768C64.1495 14.0432 63.7682 14.2394 63.3736 14.1609C62.9791 14.0824 62.7161 13.7553 62.7161 13.3498V9.38582C62.7161 9.04568 62.44 8.77095 62.098 8.77095H58.9945C58.6657 8.77095 58.4027 9.01951 58.3764 9.33349L58.3238 9.97453C58.2975 10.3408 58.074 10.6417 57.7321 10.7856C57.3901 10.9295 56.9956 10.8641 56.7195 10.6156C54.6285 8.81019 51.617 8.09066 48.645 8.67937C45.673 9.26808 43.1612 11.0734 41.9251 13.5199C41.7541 13.8731 41.3596 14.0693 40.9914 14.0432C40.5969 14.017 40.2681 13.7553 40.1498 13.389L39.7158 12.0808C39.0977 10.4586 37.6906 9.28116 35.7443 8.75786C33.4298 8.14299 30.8786 8.60088 29.2217 9.93528C28.9192 10.1838 28.5247 10.2231 28.1828 10.0661C27.854 9.90912 27.6436 9.58206 27.6436 9.21575V1.61487C27.6436 1.27473 27.3674 1 27.0255 1H23.1855C22.8436 1 22.5675 1.27473 22.5675 1.61487V11.5313C22.5675 11.95 22.3045 12.3032 21.9099 12.434C21.5023 12.5648 21.0815 12.434 20.8316 12.0808C20.7132 11.9238 20.5949 11.7668 20.4634 11.6098C18.6223 9.59514 15.624 8.5093 12.6256 8.5093C10.732 8.5093 8.82514 8.94102 7.20762 9.8437C3.97258 11.636 2 15.0767 2 18.8444C2.01315 22.5729 3.91998 25.8304 7.08926 27.5704C11.6525 30.0691 17.5703 29.2187 20.871 25.5949C21.1472 25.294 21.568 25.1894 21.9494 25.3333C22.3176 25.4772 22.5543 25.8173 22.5543 26.2098V28.146C22.5543 28.3684 22.7384 28.5515 22.9751 28.5515H27.2228C27.4595 28.5515 27.6436 28.3684 27.6436 28.146V17.3268C27.591 16.0971 28.0381 14.9066 28.8271 14.1216C29.5504 13.4152 30.4973 13.0751 31.5888 13.1274C31.7334 13.1274 31.8781 13.1536 32.0227 13.1666C32.7197 13.2713 33.3378 13.5329 33.8638 13.9254C34.6397 14.5272 35.1394 15.4168 35.2841 16.4242C35.2841 16.4242 35.3235 16.869 35.3235 17.2353V28.4992L40.3733 28.5385L40.4128 24.6399C40.4128 24.2213 40.6889 23.855 41.0966 23.7241C41.5043 23.6064 41.9382 23.7634 42.1881 24.1166L42.3328 24.339C44.2264 27.2041 47.3168 28.9309 50.6045 28.9702C52.8795 29.0225 55.0888 28.2376 56.7458 26.8377C57.0219 26.6023 57.3901 26.5499 57.7321 26.6808C58.0608 26.8247 58.2975 27.1256 58.3238 27.4919L58.3633 27.9759C58.3896 28.2899 58.6657 28.5385 58.9814 28.5385H62.098C62.44 28.5385 62.7161 28.2637 62.7161 27.9236V24.2474C62.7161 23.8157 63.0054 23.4363 63.4262 23.3317C63.8602 23.2139 64.2942 23.3971 64.5177 23.7765C65.846 26.0659 67.8974 27.7143 70.2777 28.4338C74.9856 29.8598 81.1137 28.4076 83.2047 23.4887C83.231 23.4232 83.4545 22.8607 83.4545 22.7691L83.4414 22.7822ZM22.5543 21.2123C22.5543 21.5132 22.4097 21.7879 22.173 21.9711C21.9362 22.1542 21.6206 22.2066 21.3182 22.1281L18.6749 21.3693C18.3987 21.2908 18.1226 21.4085 17.9648 21.644C16.8338 23.4102 15.4662 24.3652 13.7829 24.5352C13.5067 24.5614 13.2306 24.5745 12.9676 24.5745C11.3106 24.5745 9.82458 24.025 8.71993 22.9784C7.47063 21.801 6.85256 20.1134 6.95776 18.2295C7.11557 15.5345 8.96979 13.4675 11.692 12.9312C14.3089 12.4209 16.6892 13.5591 17.7675 15.8224C17.899 16.084 18.1883 16.2279 18.4908 16.1494L21.3445 15.3776C21.6469 15.2991 21.9494 15.3645 22.1861 15.5476C22.4228 15.7308 22.5675 16.0055 22.5675 16.3064V21.2123H22.5543ZM56.7984 21.8664C55.8252 23.6587 54.0499 24.6399 51.788 24.6399C51.696 24.6399 51.6039 24.6399 51.5118 24.6399C47.7771 24.5091 45.9492 21.7749 45.7914 19.1191C45.6335 16.4896 47.159 13.4021 50.8412 12.8396C53.1557 12.4994 55.1282 13.2713 56.3775 15.0505C57.7584 16.9998 57.9293 19.7994 56.8115 21.8664H56.7984Z" fill="white"/>
</svg>
